<?xml version="1.0" standalone="no"?>
<svg xmlns:xlink="http://www.w3.org/1999/xlink" id="wave" style="transform:rotate(0deg); transition: 0.3s" viewBox="0 0 1440 330" version="1.1" xmlns="http://www.w3.org/2000/svg"><defs><linearGradient id="sw-gradient-0" x1="0" x2="0" y1="1" y2="0"><stop stop-color="rgba(6.568, 238.169, 255, 1)" offset="0%"/><stop stop-color="rgba(11, 89.693, 255, 1)" offset="100%"/></linearGradient></defs><path style="transform:translate(0, 0px); opacity:1" fill="url(#sw-gradient-0)" d="M0,231L40,203.5C80,176,160,121,240,115.5C320,110,400,154,480,192.5C560,231,640,264,720,275C800,286,880,275,960,225.5C1040,176,1120,88,1200,49.5C1280,11,1360,22,1440,44C1520,66,1600,99,1680,132C1760,165,1840,198,1920,225.5C2000,253,2080,275,2160,258.5C2240,242,2320,187,2400,176C2480,165,2560,198,2640,181.5C2720,165,2800,99,2880,77C2960,55,3040,77,3120,104.5C3200,132,3280,165,3360,148.5C3440,132,3520,66,3600,82.5C3680,99,3760,198,3840,214.5C3920,231,4000,165,4080,159.5C4160,154,4240,209,4320,220C4400,231,4480,198,4560,181.5C4640,165,4720,165,4800,143C4880,121,4960,77,5040,71.5C5120,66,5200,99,5280,132C5360,165,5440,198,5520,225.5C5600,253,5680,275,5720,286L5760,297L5760,330L5720,330C5680,330,5600,330,5520,330C5440,330,5360,330,5280,330C5200,330,5120,330,5040,330C4960,330,4880,330,4800,330C4720,330,4640,330,4560,330C4480,330,4400,330,4320,330C4240,330,4160,330,4080,330C4000,330,3920,330,3840,330C3760,330,3680,330,3600,330C3520,330,3440,330,3360,330C3280,330,3200,330,3120,330C3040,330,2960,330,2880,330C2800,330,2720,330,2640,330C2560,330,2480,330,2400,330C2320,330,2240,330,2160,330C2080,330,2000,330,1920,330C1840,330,1760,330,1680,330C1600,330,1520,330,1440,330C1360,330,1280,330,1200,330C1120,330,1040,330,960,330C880,330,800,330,720,330C640,330,560,330,480,330C400,330,320,330,240,330C160,330,80,330,40,330L0,330Z"/></svg>